<svg xmlns="http://www.w3.org/2000/svg" width="880" height="318" viewBox="0 0 880 318">
  <rect width="880" height="318" fill="#060907"/>
  <rect x="10" y="10" width="860" height="298" rx="5" fill="#0b110c" stroke="#2c3f30"/>
  <text x="28" y="38" font-family="Consolas, ui-monospace, monospace" font-size="12" fill="#6b8570">// ne kesiyorum</text>
  <text x="848" y="38" text-anchor="end" font-family="Consolas, ui-monospace, monospace" font-size="12" fill="#5d7361">ayni seyi 2 kere tiklama</text>

  <g font-family="Consolas, ui-monospace, monospace" font-size="15">
    <g>
      <rect x="28" y="54" width="824" height="44" rx="3" fill="#101812"/>
      <rect x="28" y="54" width="5" height="44" fill="#62c878">
        <animate attributeName="opacity" values="1;0.2;0.2;0.2;0.2;1" dur="8s" repeatCount="indefinite"/>
      </rect>
      <text x="48" y="74" fill="#d7ead9">tekrar tiklama</text>
      <text x="848" y="74" text-anchor="end" fill="#8fbf96">yaz  ·  unut  ·  kullan</text>
      <text x="48" y="92" font-size="12" fill="#6b8570">ayni butona 12 kere basmak bir is degil, tasarim hatasi</text>
    </g>
    <g>
      <rect x="28" y="104" width="824" height="44" rx="3" fill="#101812"/>
      <rect x="28" y="104" width="5" height="44" fill="#62c878">
        <animate attributeName="opacity" values="0.2;1;0.2;0.2;0.2;0.2" dur="8s" repeatCount="indefinite"/>
      </rect>
      <text x="48" y="124" fill="#d7ead9">12 adimlik kurulum</text>
      <text x="848" y="124" text-anchor="end" fill="#8fbf96">1 exe. bitti.</text>
      <text x="48" y="142" font-size="12" fill="#6b8570">readme 8 paragraf, sen 8 kere kopyala. hayir.</text>
    </g>
    <g>
      <rect x="28" y="154" width="824" height="44" rx="3" fill="#101812"/>
      <rect x="28" y="154" width="5" height="44" fill="#62c878">
        <animate attributeName="opacity" values="0.2;0.2;1;0.2;0.2;0.2" dur="8s" repeatCount="indefinite"/>
      </rect>
      <text x="48" y="174" fill="#d7ead9">"neredeydi o ayar"</text>
      <text x="848" y="174" text-anchor="end" fill="#8fbf96">kucuk windows araci</text>
      <text x="48" y="192" font-size="12" fill="#6b8570">menude kaybolan seyi her seferinde aramiyorum</text>
    </g>
    <g>
      <rect x="28" y="204" width="824" height="44" rx="3" fill="#101812"/>
      <rect x="28" y="204" width="5" height="44" fill="#62c878">
        <animate attributeName="opacity" values="0.2;0.2;0.2;1;0.2;0.2" dur="8s" repeatCount="indefinite"/>
      </rect>
      <text x="48" y="224" fill="#d7ead9">oyun / sunucu rutini</text>
      <text x="848" y="224" text-anchor="end" fill="#8fbf96">elle yapmam</text>
      <text x="48" y="242" font-size="12" fill="#6b8570">her gun ayni 6 tik. ucuncu gunde kod.</text>
    </g>
    <g>
      <rect x="28" y="254" width="824" height="44" rx="3" fill="#101812"/>
      <rect x="28" y="254" width="5" height="44" fill="#62c878">
        <animate attributeName="opacity" values="0.2;0.2;0.2;0.2;1;0.2" dur="8s" repeatCount="indefinite"/>
      </rect>
      <text x="48" y="274" fill="#d7ead9">daginik masaustu yolu</text>
      <text x="848" y="274" text-anchor="end" fill="#8fbf96">bir tus birakiyorum</text>
      <text x="48" y="292" font-size="12" fill="#6b8570">uzun yol varsa yanlis yoldur. kisa yolu C# ile yaz.</text>
    </g>
  </g>
</svg>
